<svg id="Layer_1" data-name="Layer 1" xmlns="http://www.w3.org/2000/svg" xmlns:xlink="http://www.w3.org/1999/xlink" viewBox="0 0 512 512"><defs><style>.cls-1{fill:url(#radial-gradient);}.cls-10,.cls-11,.cls-14,.cls-15,.cls-16,.cls-17,.cls-18,.cls-19,.cls-2,.cls-20,.cls-22,.cls-3,.cls-4,.cls-5,.cls-6,.cls-7,.cls-8,.cls-9{fill:none;}.cls-10,.cls-11,.cls-12,.cls-13,.cls-14,.cls-15,.cls-16,.cls-17,.cls-18,.cls-19,.cls-2,.cls-20,.cls-21,.cls-22,.cls-23,.cls-24,.cls-3,.cls-4,.cls-5,.cls-6,.cls-7,.cls-8,.cls-9{stroke-miterlimit:10;}.cls-10,.cls-12,.cls-13,.cls-14,.cls-15,.cls-16,.cls-17,.cls-18,.cls-19,.cls-2,.cls-20,.cls-3,.cls-4,.cls-5,.cls-6,.cls-7,.cls-8,.cls-9{stroke-width:25px;}.cls-2{stroke:url(#linear-gradient);}.cls-3{stroke:url(#linear-gradient-2);}.cls-4{stroke:url(#linear-gradient-3);}.cls-5{stroke:url(#linear-gradient-4);}.cls-6{stroke:url(#linear-gradient-5);}.cls-7{stroke:url(#linear-gradient-6);}.cls-8{stroke:url(#linear-gradient-7);}.cls-9{stroke:url(#linear-gradient-8);}.cls-10{stroke:url(#linear-gradient-9);}.cls-11{stroke:url(#linear-gradient-10);}.cls-12,.cls-13,.cls-21,.cls-23,.cls-24{fill:#fff;}.cls-12{stroke:url(#linear-gradient-11);}.cls-13{stroke:url(#linear-gradient-12);}.cls-14{stroke:url(#linear-gradient-13);}.cls-15{stroke:url(#linear-gradient-14);}.cls-16{stroke:url(#linear-gradient-15);}.cls-17{stroke:url(#linear-gradient-16);}.cls-18{stroke:url(#linear-gradient-17);}.cls-19{stroke:url(#linear-gradient-18);}.cls-20{stroke:url(#linear-gradient-19);}.cls-21,.cls-23,.cls-24{stroke-width:5px;}.cls-21{stroke:url(#linear-gradient-20);}.cls-22{stroke:url(#linear-gradient-21);}.cls-23{stroke:url(#linear-gradient-22);}.cls-24{stroke:url(#linear-gradient-23);}</style><radialGradient id="radial-gradient" cx="256" cy="256" r="256" gradientUnits="userSpaceOnUse"><stop offset="0.4" stop-color="#f27b11" stop-opacity="0.9"/><stop offset="1" stop-color="#f76500"/></radialGradient><linearGradient id="linear-gradient" x1="421.79" y1="351.65" x2="446.79" y2="351.65" gradientUnits="userSpaceOnUse"><stop offset="0" stop-color="#fff"/><stop offset="1" stop-color="#fff"/></linearGradient><linearGradient id="linear-gradient-2" x1="388.38" y1="308.42" x2="413.38" y2="308.42" gradientTransform="matrix(1, 0, 0, 1.24, 0.03, -90.04)" xlink:href="#linear-gradient"/><linearGradient id="linear-gradient-3" x1="149.59" y1="207.25" x2="413.39" y2="207.25" xlink:href="#linear-gradient"/><linearGradient id="linear-gradient-4" x1="149.59" y1="276.43" x2="174.59" y2="276.43" xlink:href="#linear-gradient"/><linearGradient id="linear-gradient-5" x1="388.36" y1="331.6" x2="447.4" y2="331.6" xlink:href="#linear-gradient"/><linearGradient id="linear-gradient-6" x1="294.78" y1="378.03" x2="447.4" y2="378.03" xlink:href="#linear-gradient"/><linearGradient id="linear-gradient-7" x1="250.79" y1="283.45" x2="316.47" y2="283.45" xlink:href="#linear-gradient"/><linearGradient id="linear-gradient-8" x1="250.79" y1="318.18" x2="275.79" y2="318.18" xlink:href="#linear-gradient"/><linearGradient id="linear-gradient-9" x1="291.49" y1="344.25" x2="316.49" y2="344.25" xlink:href="#linear-gradient"/><linearGradient id="linear-gradient-10" x1="126.36" y1="189.78" x2="127.36" y2="189.78" xlink:href="#linear-gradient"/><linearGradient id="linear-gradient-11" x1="69.02" y1="378.97" x2="273" y2="378.97" xlink:href="#linear-gradient"/><linearGradient id="linear-gradient-12" x1="64.69" y1="371.02" x2="89.69" y2="371.02" xlink:href="#linear-gradient"/><linearGradient id="linear-gradient-13" x1="64.69" y1="155.41" x2="142.49" y2="155.41" xlink:href="#linear-gradient"/><linearGradient id="linear-gradient-14" x1="64.69" y1="258.85" x2="89.69" y2="258.85" xlink:href="#linear-gradient"/><linearGradient id="linear-gradient-15" x1="339.8" y1="331.84" x2="368.56" y2="331.84" xlink:href="#linear-gradient"/><linearGradient id="linear-gradient-16" x1="343.94" y1="305.51" x2="368.94" y2="305.51" xlink:href="#linear-gradient"/><linearGradient id="linear-gradient-17" x1="196.35" y1="245.09" x2="368.88" y2="245.09" xlink:href="#linear-gradient"/><linearGradient id="linear-gradient-18" x1="196.35" y1="306.11" x2="221.35" y2="306.11" xlink:href="#linear-gradient"/><linearGradient id="linear-gradient-19" x1="64.52" y1="333.76" x2="221.68" y2="333.76" xlink:href="#linear-gradient"/><linearGradient id="linear-gradient-20" x1="251.7" y1="136.25" x2="293.72" y2="136.25" gradientTransform="matrix(0.99, 0.11, -0.11, 0.99, 19.62, -27.09)" xlink:href="#linear-gradient"/><linearGradient id="linear-gradient-21" x1="127.65" y1="237.78" x2="128.65" y2="237.78" xlink:href="#linear-gradient"/><linearGradient id="linear-gradient-22" x1="-227.43" y1="314.28" x2="-186.58" y2="314.28" gradientTransform="translate(-68.78 -60.1) rotate(-64.72)" xlink:href="#linear-gradient"/><linearGradient id="linear-gradient-23" x1="118.15" y1="209.33" x2="160.17" y2="209.33" gradientTransform="translate(16.74 -5.86) rotate(7.76)" xlink:href="#linear-gradient"/></defs><title>App logo background color 512</title><rect class="cls-1" width="512" height="512"/><line class="cls-2" x1="434.29" y1="336.15" x2="434.29" y2="367.16"/><line class="cls-3" x1="400.89" y1="249.84" x2="400.88" y2="337.61"/><path class="cls-4" d="M162.09,249.84c0-40.15,53.46-72.69,119.4-72.69s119.4,32.54,119.4,72.69"/><line class="cls-5" x1="162.09" y1="249.84" x2="162.09" y2="303.02"/><line class="cls-6" x1="388.36" y1="331.6" x2="447.4" y2="331.6"/><line class="cls-7" x1="294.78" y1="378.03" x2="447.4" y2="378.03"/><path class="cls-8" d="M263.29,297.56c-.06-8.69,9-15.76,20.23-15.81s20.39,7,20.45,15.64"/><line class="cls-9" x1="263.29" y1="297.47" x2="263.29" y2="338.88"/><line class="cls-10" x1="303.99" y1="297.35" x2="303.99" y2="391.16"/><line class="cls-11" x1="126.86" y1="171.39" x2="126.86" y2="208.16"/><line class="cls-12" x1="273" y1="378.97" x2="69.02" y2="378.97"/><line class="cls-13" x1="77.19" y1="350.88" x2="77.19" y2="391.16"/><path class="cls-14" d="M77.19,173.33c-.08-12.86,11.68-23.34,26.26-23.41s26.46,10.3,26.54,23.16"/><line class="cls-15" x1="77.19" y1="173.06" x2="77.19" y2="344.64"/><line class="cls-16" x1="368.56" y1="331.84" x2="339.8" y2="331.84"/><line class="cls-17" x1="356.44" y1="273.41" x2="356.44" y2="337.61"/><path class="cls-18" d="M208.85,274c-.19-24.93,32.69-45.27,73.43-45.43s73.92,19.93,74.1,44.86"/><line class="cls-19" x1="208.85" y1="274.01" x2="208.85" y2="338.21"/><line class="cls-20" x1="221.68" y1="333.76" x2="64.52" y2="333.76"/><polygon class="cls-21" points="287.5 151.78 277.46 147.14 267.92 152.7 269.25 141.81 260.96 134.52 271.82 132.43 276.23 122.37 281.61 131.97 292.64 133.04 285.1 141.06 287.5 151.78"/><line class="cls-22" x1="128.15" y1="230.5" x2="128.15" y2="245.06"/><polygon class="cls-23" points="143.75 255.35 136.25 263.04 138.36 273.51 128.69 268.82 119.3 274.07 120.82 263.49 112.9 256.27 123.52 254.42 128.01 244.7 133.05 254.14 143.75 255.35"/><polygon class="cls-24" points="137.34 234.73 127.44 229.81 117.75 235.11 119.39 224.26 111.3 216.75 122.22 214.96 126.91 205.02 132.02 214.77 143.01 216.13 135.24 223.95 137.34 234.73"/></svg>