<svg height="480pt" viewBox="0 0 480 480" width="480pt" xmlns="http://www.w3.org/2000/svg"><path d="m304 64h-64v48h64l-16-24zm0 0" fill="#ca5057"/><path d="m232 48h16v128h-16zm0 0" fill="#bc8f6f"/><path d="m232 48h8v128h-8zm0 0" fill="#cb9e78"/><path d="m144 256h192v192h-192zm0 0" fill="#599072"/><path d="m160 304h168v144h-168zm0 0" fill="#70b48f"/><path d="m240 160-144 96h288zm0 0" fill="#df9363"/><path d="m96 256h256l-128-85.335938zm0 0" fill="#eea273"/><path d="m336 160h128v288h-128zm0 0" fill="#599072"/><path d="m336 160h96v288h-96zm0 0" fill="#70b48f"/><path d="m368 192h32v32h-32zm0 0" fill="#94cce7"/><path d="m400 256h32v32h-32zm0 0" fill="#94cce7"/><path d="m0 448h480v32h-480zm0 0" fill="#575c61"/><path d="m0 464h480v16h-480zm0 0" fill="#5b6673"/><path d="m176 448v-64h32v64" fill="#94cce7"/><path d="m304 448v-64h-32v64" fill="#94cce7"/><path d="m400 0-40 96h80zm0 0" fill="#df9363"/><path d="m360 96h56l-28-67.199219zm0 0" fill="#eea273"/><path d="m16 160h128v288h-128zm0 0" fill="#599072"/><path d="m16 160h96v288h-96zm0 0" fill="#70b48f"/><path d="m48 192h32v32h-32zm0 0" fill="#94cce7"/><path d="m80 256h32v32h-32zm0 0" fill="#94cce7"/><path d="m48 320h32v32h-32zm0 0" fill="#94cce7"/><path d="m80 384h32v32h-32zm0 0" fill="#94cce7"/><path d="m80 0-40 96h80zm0 0" fill="#df9363"/><path d="m40 96h56l-28-67.199219zm0 0" fill="#eea273"/><path d="m32 80h32v80h-32zm0 0" fill="#5789d6"/><path d="m96 80h32v80h-32zm0 0" fill="#5789d6"/><path d="m64 96h32v64h-32zm0 0" fill="#699ce6"/><path d="m352 80h32v80h-32zm0 0" fill="#5789d6"/><path d="m416 80h32v80h-32zm0 0" fill="#5789d6"/><path d="m384 96h32v64h-32zm0 0" fill="#699ce6"/><path d="m256 208c0 8.835938-7.164062 16-16 16s-16-7.164062-16-16 7.164062-16 16-16 16 7.164062 16 16zm0 0" fill="#ca5057"/><path d="m368 320h32v32h-32zm0 0" fill="#94cce7"/><path d="m400 384h32v32h-32zm0 0" fill="#94cce7"/><g fill="#575c61"><path d="m104 184h16v48h-16zm0 0"/><path d="m40 248h16v48h-16zm0 0"/><path d="m104 312h16v48h-16zm0 0"/><path d="m40 376h16v48h-16zm0 0"/><path d="m424 184h16v48h-16zm0 0"/><path d="m360 248h16v48h-16zm0 0"/><path d="m424 312h16v48h-16zm0 0"/><path d="m360 376h16v48h-16zm0 0"/><path d="m168 328h16v32h-16zm0 0"/><path d="m200 328h16v32h-16zm0 0"/><path d="m264 328h16v32h-16zm0 0"/><path d="m296 328h16v32h-16zm0 0"/><path d="m232 328h16v32h-16zm0 0"/></g></svg>